<svg width="24" height="24" viewBox="0 0 24 24" fill="none" xmlns="http://www.w3.org/2000/svg">
<path d="M4.76115 14.1263C5.32017 13.3776 6.04632 12.7698 6.88174 12.3514C7.71717 11.9329 8.63878 11.7153 9.57315 11.716C10.9754 11.716 12.2646 12.196 13.2863 13.0017" stroke="#EDEDED" stroke-width="1.71429" stroke-linecap="round" stroke-linejoin="round"/>
<path d="M8.71429 18.1429H2.71429C2.25963 18.1429 1.82359 17.9622 1.5021 17.6408C1.18061 17.3193 1 16.8832 1 16.4286V2.71429C1 2.25963 1.18061 1.82359 1.5021 1.5021C1.82359 1.18061 2.25963 1 2.71429 1H16.4286C16.8832 1 17.3193 1.18061 17.6408 1.5021C17.9622 1.82359 18.1429 2.25963 18.1429 2.71429V7.85714" stroke="#EDEDED" stroke-width="1.71429" stroke-linecap="round" stroke-linejoin="round"/>
<path d="M9.57143 9.14286C9.90912 9.14286 10.2435 9.07634 10.5555 8.94712C10.8675 8.81789 11.1509 8.62848 11.3897 8.3897C11.6285 8.15092 11.8179 7.86745 11.9471 7.55547C12.0763 7.24349 12.1429 6.90911 12.1429 6.57143C12.1429 6.23374 12.0763 5.89937 11.9471 5.58739C11.8179 5.27541 11.6285 4.99193 11.3897 4.75315C11.1509 4.51437 10.8675 4.32496 10.5555 4.19574C10.2435 4.06651 9.90912 4 9.57143 4C8.88945 4 8.23539 4.27092 7.75316 4.75315C7.27092 5.23539 7 5.88944 7 6.57143C7 7.25341 7.27092 7.90747 7.75316 8.3897C8.23539 8.87194 8.88945 9.14286 9.57143 9.14286ZM12.5954 18.0297C11.9937 17.9251 11.9937 17.0611 12.5954 16.9566C13.6605 16.7703 14.6461 16.2715 15.4269 15.5236C16.2077 14.7758 16.7485 13.8126 16.9806 12.7566L17.0166 12.5903C17.1469 11.9954 17.9937 11.992 18.1291 12.5851L18.1737 12.7789C18.4132 13.8308 18.9584 14.7884 19.7408 15.5312C20.5233 16.2739 21.5079 16.7687 22.5709 16.9531C23.176 17.0594 23.176 17.9269 22.5709 18.0331C21.5079 18.2176 20.5233 18.7124 19.7408 19.4551C18.9584 20.1979 18.4132 21.1555 18.1737 22.2074L18.1291 22.4011C17.9937 22.9943 17.1469 22.9909 17.0166 22.396L16.9806 22.2297C16.7485 21.1737 16.2077 20.2105 15.4269 19.4627C14.6461 18.7148 13.6605 18.216 12.5954 18.0297Z" stroke="#EDEDED" stroke-width="1.71429" stroke-linecap="round" stroke-linejoin="round"/>
</svg>
