<svg width="60" height="43" viewBox="0 0 60 43" fill="none" xmlns="http://www.w3.org/2000/svg">
<path d="M0 0H60V13C60 29.5685 46.5685 43 30 43V43C13.4315 43 0 29.5685 0 13V0Z" fill="#09090B"/>
<mask id="mask0_5_599" style="mask-type:alpha" maskUnits="userSpaceOnUse" x="35" y="11" width="8" height="16">
<mask id="mask1_5_599" style="mask-type:alpha" maskUnits="userSpaceOnUse" x="33" y="10" width="10" height="9">
<rect x="42.8228" y="10.081" width="8.53855" height="9.08724" transform="rotate(90 42.8228 10.081)" fill="#42CF3B"/>
</mask>
<g mask="url(#mask1_5_599)">
<path d="M41.739 25.9894C41.4591 25.9774 41.1634 25.9318 40.8915 25.8749C39.0313 25.4856 37.5462 24.2721 36.5921 22.9362C35.2295 21.0287 34.8183 18.5126 35.4811 16.3673C36.0966 14.3749 37.4234 12.7043 39.5745 11.6501C40.1877 11.332 41.1335 11.0751 41.8613 11.1084C42.0541 11.1171 42.1764 11.1518 42.3086 11.2753C42.5918 11.8469 41.1306 13.0516 40.7561 13.5461C40.4216 13.9878 40.1386 14.4855 39.9129 14.9722C38.6326 17.7332 38.998 20.9685 40.7313 23.5281C41.1477 24.1431 41.8854 24.6399 42.2236 25.2834C42.3095 25.4469 42.3527 25.5929 42.2701 25.7654C42.1416 25.9073 41.934 25.9403 41.739 25.9894Z" fill="#42CF3B"/>
</g>
<mask id="mask2_5_599" style="mask-type:alpha" maskUnits="userSpaceOnUse" x="33" y="18" width="10" height="10">
<rect width="8.53855" height="9.08724" transform="matrix(5.26414e-08 -1 -1 -3.62963e-08 42.823 27.1581)" fill="#42CF3B"/>
</mask>
<g mask="url(#mask2_5_599)">
<path d="M41.739 11.2496C41.4591 11.2617 41.1634 11.3072 40.8915 11.3641C39.0313 11.7535 37.5462 12.967 36.5921 14.3028C35.2295 16.2104 34.8183 18.7264 35.4811 20.8718C36.0966 22.8641 37.4234 24.5348 39.5745 25.589C40.1877 25.9071 41.1335 26.1639 41.8613 26.1306C42.0541 26.122 42.1764 26.0872 42.3086 25.9637C42.5918 25.3922 41.1306 24.1874 40.7561 23.6929C40.4216 23.2512 40.1386 22.7536 39.9129 22.2668C38.6326 19.5058 38.998 16.2706 40.7313 13.7109C41.1477 13.096 41.8854 12.5992 42.2236 11.9556C42.3095 11.7922 42.3527 11.6462 42.2701 11.4736C42.1416 11.3318 41.934 11.2987 41.739 11.2496Z" fill="#42CF3B"/>
</g>
</mask>
<g mask="url(#mask0_5_599)">
<mask id="mask3_5_599" style="mask-type:alpha" maskUnits="userSpaceOnUse" x="33" y="10" width="10" height="9">
<rect x="42.8228" y="10.0811" width="8.53855" height="9.08724" transform="rotate(90 42.8228 10.0811)" fill="#42CF3B"/>
</mask>
<g mask="url(#mask3_5_599)">
<path d="M41.739 25.9894C41.459 25.9774 41.1633 25.9318 40.8915 25.8749C39.0312 25.4856 37.5461 24.2721 36.592 22.9362C35.2295 21.0287 34.8183 18.5126 35.481 16.3673C36.0966 14.3749 37.4233 12.7043 39.5745 11.6501C40.1876 11.332 41.1334 11.0751 41.8612 11.1084C42.054 11.1171 42.1764 11.1518 42.3086 11.2753C42.5917 11.8469 41.1305 13.0516 40.756 13.5461C40.4215 13.9878 40.1385 14.4855 39.9128 14.9722C38.6325 17.7332 38.9979 20.9685 40.7312 23.5281C41.1476 24.1431 41.8853 24.6399 42.2235 25.2834C42.3095 25.4469 42.3526 25.5929 42.2701 25.7654C42.1416 25.9073 41.9339 25.9403 41.739 25.9894Z" fill="#42CF3B"/>
</g>
<mask id="mask4_5_599" style="mask-type:alpha" maskUnits="userSpaceOnUse" x="33" y="18" width="10" height="10">
<rect width="8.53855" height="9.08724" transform="matrix(5.26414e-08 -1 -1 -3.62963e-08 42.823 27.1581)" fill="#42CF3B"/>
</mask>
<g mask="url(#mask4_5_599)">
<path d="M41.739 11.2496C41.4591 11.2617 41.1634 11.3072 40.8915 11.3641C39.0313 11.7535 37.5462 12.967 36.5921 14.3028C35.2295 16.2104 34.8183 18.7264 35.4811 20.8718C36.0966 22.8641 37.4234 24.5348 39.5745 25.589C40.1877 25.9071 41.1335 26.1639 41.8613 26.1306C42.0541 26.122 42.1764 26.0872 42.3086 25.9637C42.5918 25.3922 41.1306 24.1874 40.7561 23.6929C40.4216 23.2512 40.1386 22.7536 39.9129 22.2668C38.6326 19.5058 38.998 16.2706 40.7313 13.7109C41.1477 13.096 41.8854 12.5992 42.2236 11.9556C42.3095 11.7922 42.3527 11.6462 42.2701 11.4736C42.1416 11.3318 41.934 11.2987 41.739 11.2496Z" fill="#42CF3B"/>
</g>
<ellipse cx="48.5695" cy="18.6162" rx="11.7642" ry="8.95689" fill="#42CF3B"/>
</g>
<mask id="mask5_5_599" style="mask-type:alpha" maskUnits="userSpaceOnUse" x="21" y="6" width="18" height="8">
<mask id="mask6_5_599" style="mask-type:alpha" maskUnits="userSpaceOnUse" x="20" y="6" width="10" height="9">
<rect x="20.6157" y="6" width="9.29428" height="8.34834" fill="#42CF3B"/>
</mask>
<g mask="url(#mask6_5_599)">
<path d="M37.9322 6.99593C37.9191 7.25311 37.8695 7.52477 37.8076 7.77453C37.3838 9.4835 36.0629 10.8478 34.6088 11.7244C32.5324 12.9761 29.7936 13.3539 27.4584 12.745C25.2897 12.1795 23.4712 10.9607 22.3237 8.98443C21.9774 8.42111 21.6978 7.55226 21.7341 6.88359C21.7435 6.7065 21.7814 6.59407 21.9158 6.47263C22.5379 6.21254 23.8493 7.55492 24.3876 7.89895C24.8684 8.20625 25.4101 8.46623 25.9399 8.6736C28.9453 9.84979 32.4669 9.51407 35.253 7.92175C35.9225 7.53917 36.4632 6.86146 37.1637 6.55075C37.3417 6.47182 37.5005 6.43215 37.6884 6.50802C37.8428 6.62604 37.8788 6.81685 37.9322 6.99593Z" fill="#42CF3B"/>
</g>
<mask id="mask7_5_599" style="mask-type:alpha" maskUnits="userSpaceOnUse" x="29" y="6" width="11" height="9">
<rect width="9.29428" height="8.34834" transform="matrix(-1 0 9.1232e-09 1 39.2042 6)" fill="#42CF3B"/>
</mask>
<g mask="url(#mask7_5_599)">
<path d="M21.8878 6.99593C21.9009 7.25311 21.9504 7.52477 22.0124 7.77453C22.4362 9.4835 23.7571 10.8478 25.2111 11.7244C27.2876 12.9761 30.0263 13.3539 32.3615 12.745C34.5302 12.1795 36.3487 10.9607 37.4962 8.98443C37.8425 8.42111 38.1221 7.55226 38.0858 6.88359C38.0764 6.7065 38.0386 6.59407 37.9042 6.47263C37.282 6.21254 35.9706 7.55492 35.4324 7.89895C34.9516 8.20625 34.4099 8.46623 33.88 8.6736C30.8747 9.84979 27.3531 9.51407 24.5669 7.92175C23.8975 7.53917 23.3567 6.86146 22.6562 6.55075C22.4783 6.47182 22.3194 6.43215 22.1316 6.50802C21.9771 6.62604 21.9412 6.81685 21.8878 6.99593Z" fill="#42CF3B"/>
</g>
</mask>
<g mask="url(#mask5_5_599)">
<mask id="mask8_5_599" style="mask-type:alpha" maskUnits="userSpaceOnUse" x="20" y="6" width="10" height="9">
<rect x="20.6157" y="5.99991" width="9.29428" height="8.34834" fill="#42CF3B"/>
</mask>
<g mask="url(#mask8_5_599)">
<path d="M37.9321 6.9959C37.919 7.25308 37.8695 7.52474 37.8075 7.7745C37.3837 9.48347 36.0628 10.8478 34.6087 11.7244C32.5323 12.9761 29.7936 13.3538 27.4584 12.745C25.2896 12.1795 23.4712 10.9606 22.3237 8.9844C21.9774 8.42108 21.6978 7.55223 21.7341 6.88356C21.7435 6.70647 21.7813 6.59404 21.9157 6.4726C22.5379 6.2125 23.8492 7.55489 24.3875 7.89892C24.8683 8.20622 25.41 8.4662 25.9399 8.67357C28.9452 9.84976 32.4668 9.51404 35.253 7.92172C35.9224 7.53914 36.4632 6.86143 37.1637 6.55072C37.3416 6.47179 37.5005 6.43212 37.6883 6.50799C37.8427 6.62601 37.8787 6.81682 37.9321 6.9959Z" fill="#42CF3B"/>
</g>
<mask id="mask9_5_599" style="mask-type:alpha" maskUnits="userSpaceOnUse" x="29" y="6" width="11" height="9">
<rect width="9.29428" height="8.34834" transform="matrix(-1 0 8.85226e-09 1 39.2042 6)" fill="#42CF3B"/>
</mask>
<g mask="url(#mask9_5_599)">
<path d="M21.8877 6.99593C21.9008 7.25311 21.9504 7.52477 22.0123 7.77453C22.4361 9.4835 23.757 10.8478 25.2111 11.7244C27.2875 12.9761 30.0262 13.3539 32.3615 12.745C34.5302 12.1795 36.3487 10.9607 37.4962 8.98443C37.8424 8.42111 38.122 7.55226 38.0857 6.88359C38.0763 6.7065 38.0385 6.59407 37.9041 6.47263C37.282 6.21254 35.9706 7.55492 35.4323 7.89895C34.9515 8.20625 34.4098 8.46623 33.88 8.6736C30.8746 9.84979 27.353 9.51407 24.5668 7.92175C23.8974 7.53917 23.3567 6.86146 22.6562 6.55075C22.4782 6.47182 22.3193 6.43215 22.1315 6.50802C21.9771 6.62604 21.9411 6.81685 21.8877 6.99593Z" fill="#42CF3B"/>
</g>
<ellipse cx="29.9063" cy="0.720759" rx="10.8076" ry="9.74966" transform="rotate(-90 29.9063 0.720759)" fill="#42CF3B"/>
</g>
<mask id="mask10_5_599" style="mask-type:alpha" maskUnits="userSpaceOnUse" x="21" y="24" width="18" height="7">
<mask id="mask11_5_599" style="mask-type:alpha" maskUnits="userSpaceOnUse" x="29" y="22" width="11" height="10">
<rect x="39.2042" y="31.3249" width="9.29428" height="8.34834" transform="rotate(180 39.2042 31.3249)" fill="#42CF3B"/>
</mask>
<g mask="url(#mask11_5_599)">
<path d="M21.8876 30.329C21.9008 30.0718 21.9503 29.8001 22.0123 29.5504C22.436 27.8414 23.757 26.4771 25.211 25.6005C27.2875 24.3488 30.0262 23.971 32.3614 24.5799C34.5301 25.1454 36.3486 26.3643 37.4961 28.3405C37.8424 28.9038 38.122 29.7727 38.0857 30.4413C38.0763 30.6184 38.0385 30.7308 37.904 30.8523C37.2819 31.1124 35.9705 29.77 35.4323 29.426C34.9514 29.1187 34.4097 28.8587 33.8799 28.6513C30.8746 27.4751 27.353 27.8108 24.5668 29.4032C23.8974 29.7858 23.3566 30.4635 22.6561 30.7742C22.4782 30.8531 22.3193 30.8928 22.1315 30.8169C21.977 30.6989 21.941 30.5081 21.8876 30.329Z" fill="#42CF3B"/>
</g>
<mask id="mask12_5_599" style="mask-type:alpha" maskUnits="userSpaceOnUse" x="20" y="22" width="10" height="10">
<rect width="9.29428" height="8.34834" transform="matrix(1 -8.03143e-08 -1.04796e-07 -1 20.6155 31.3249)" fill="#42CF3B"/>
</mask>
<g mask="url(#mask12_5_599)">
<path d="M37.9321 30.329C37.919 30.0718 37.8694 29.8002 37.8074 29.5504C37.3837 27.8414 36.0627 26.4771 34.6087 25.6006C32.5322 24.3488 29.7935 23.9711 27.4583 24.5799C25.2896 25.1454 23.4711 26.3643 22.3236 28.3405C21.9773 28.9038 21.6977 29.7727 21.734 30.4414C21.7434 30.6185 21.7812 30.7309 21.9157 30.8523C22.5378 31.1124 23.8492 29.77 24.3874 29.426C24.8683 29.1187 25.41 28.8587 25.9398 28.6514C28.9451 27.4752 32.4667 27.8109 35.2529 29.4032C35.9223 29.7858 36.4631 30.4635 37.1636 30.7742C37.3415 30.8531 37.5004 30.8928 37.6882 30.8169C37.8427 30.6989 37.8787 30.5081 37.9321 30.329Z" fill="#42CF3B"/>
</g>
</mask>
<g mask="url(#mask10_5_599)">
<mask id="mask13_5_599" style="mask-type:alpha" maskUnits="userSpaceOnUse" x="29" y="22" width="11" height="10">
<rect x="39.2042" y="31.3249" width="9.29428" height="8.34834" transform="rotate(180 39.2042 31.3249)" fill="#42CF3B"/>
</mask>
<g mask="url(#mask13_5_599)">
<path d="M21.8876 30.329C21.9008 30.0718 21.9503 29.8001 22.0123 29.5504C22.436 27.8414 23.757 26.4771 25.211 25.6005C27.2875 24.3488 30.0262 23.971 32.3614 24.5799C34.5301 25.1454 36.3486 26.3643 37.4961 28.3405C37.8424 28.9038 38.122 29.7727 38.0857 30.4413C38.0763 30.6184 38.0385 30.7308 37.904 30.8523C37.2819 31.1124 35.9705 29.77 35.4323 29.426C34.9514 29.1187 34.4097 28.8587 33.8799 28.6513C30.8746 27.4751 27.353 27.8108 24.5668 29.4032C23.8974 29.7858 23.3566 30.4635 22.6561 30.7742C22.4782 30.8531 22.3193 30.8928 22.1315 30.8169C21.977 30.6989 21.941 30.5081 21.8876 30.329Z" fill="#42CF3B"/>
</g>
<mask id="mask14_5_599" style="mask-type:alpha" maskUnits="userSpaceOnUse" x="20" y="22" width="10" height="10">
<rect width="9.29428" height="8.34834" transform="matrix(1 -8.03143e-08 -1.04796e-07 -1 20.6155 31.3249)" fill="#42CF3B"/>
</mask>
<g mask="url(#mask14_5_599)">
<path d="M37.9321 30.329C37.919 30.0718 37.8694 29.8001 37.8074 29.5504C37.3837 27.8414 36.0627 26.4771 34.6087 25.6005C32.5322 24.3488 29.7935 23.971 27.4583 24.5799C25.2896 25.1454 23.4711 26.3643 22.3236 28.3405C21.9773 28.9038 21.6977 29.7727 21.734 30.4413C21.7434 30.6184 21.7812 30.7308 21.9157 30.8523C22.5378 31.1124 23.8492 29.77 24.3874 29.426C24.8683 29.1187 25.41 28.8587 25.9398 28.6513C28.9451 27.4751 32.4667 27.8108 35.2529 29.4032C35.9223 29.7858 36.4631 30.4635 37.1636 30.7742C37.3415 30.8531 37.5004 30.8928 37.6882 30.8169C37.8427 30.6989 37.8787 30.5081 37.9321 30.329Z" fill="#42CF3B"/>
</g>
<ellipse cx="29.9136" cy="36.6042" rx="10.8076" ry="9.74966" transform="rotate(90 29.9136 36.6042)" fill="#42CF3B"/>
</g>
<mask id="mask15_5_599" style="mask-type:alpha" maskUnits="userSpaceOnUse" x="17" y="11" width="8" height="16">
<mask id="mask16_5_599" style="mask-type:alpha" maskUnits="userSpaceOnUse" x="17" y="18" width="10" height="10">
<rect x="17" y="27.1581" width="8.53855" height="9.08724" transform="rotate(-90 17 27.1581)" fill="#42CF3B"/>
</mask>
<g mask="url(#mask16_5_599)">
<path d="M18.0841 11.2497C18.364 11.2617 18.6597 11.3072 18.9316 11.3642C20.7918 11.7535 22.2769 12.967 23.2311 14.3028C24.5936 16.2104 25.0048 18.7265 24.342 20.8718C23.7265 22.8642 22.3997 24.5348 20.2486 25.589C19.6354 25.9071 18.6897 26.164 17.9618 26.1306C17.769 26.122 17.6467 26.0873 17.5145 25.9637C17.2314 25.3922 18.6926 24.1875 19.067 23.693C19.4015 23.2512 19.6845 22.7536 19.9102 22.2668C21.1906 19.5058 20.8251 16.2706 19.0919 13.711C18.6754 13.096 17.9377 12.5992 17.5995 11.9557C17.5136 11.7922 17.4704 11.6462 17.553 11.4737C17.6815 11.3318 17.8892 11.2987 18.0841 11.2497Z" fill="#42CF3B"/>
</g>
<mask id="mask17_5_599" style="mask-type:alpha" maskUnits="userSpaceOnUse" x="17" y="10" width="10" height="9">
<rect width="8.53855" height="9.08724" transform="matrix(4.75802e-08 1 1 -4.82896e-08 17 10.081)" fill="#42CF3B"/>
</mask>
<g mask="url(#mask17_5_599)">
<path d="M18.0841 25.9895C18.364 25.9775 18.6597 25.9319 18.9316 25.875C20.7918 25.4857 22.2769 24.2722 23.2311 22.9363C24.5936 21.0288 25.0048 18.5127 24.342 16.3674C23.7265 14.375 22.3997 12.7044 20.2486 11.6502C19.6354 11.3321 18.6897 11.0752 17.9618 11.1085C17.769 11.1172 17.6467 11.1519 17.5145 11.2754C17.2314 11.847 18.6926 13.0517 19.067 13.5462C19.4015 13.9879 19.6845 14.4856 19.9102 14.9723C21.1905 17.7333 20.8251 20.9686 19.0919 23.5282C18.6754 24.1432 17.9377 24.64 17.5995 25.2835C17.5136 25.447 17.4704 25.593 17.553 25.7655C17.6815 25.9074 17.8892 25.9404 18.0841 25.9895Z" fill="#42CF3B"/>
</g>
</mask>
<g mask="url(#mask15_5_599)">
<mask id="mask18_5_599" style="mask-type:alpha" maskUnits="userSpaceOnUse" x="17" y="18" width="10" height="10">
<rect x="17" y="27.1581" width="8.53855" height="9.08724" transform="rotate(-90 17 27.1581)" fill="#42CF3B"/>
</mask>
<g mask="url(#mask18_5_599)">
<path d="M18.0841 11.2497C18.364 11.2617 18.6597 11.3072 18.9316 11.3642C20.7918 11.7535 22.2769 12.967 23.2311 14.3028C24.5936 16.2104 25.0048 18.7265 24.342 20.8718C23.7265 22.8642 22.3997 24.5348 20.2486 25.589C19.6354 25.9071 18.6897 26.164 17.9618 26.1306C17.769 26.122 17.6467 26.0873 17.5145 25.9637C17.2314 25.3922 18.6926 24.1875 19.067 23.693C19.4015 23.2512 19.6845 22.7536 19.9102 22.2668C21.1906 19.5058 20.8251 16.2706 19.0919 13.711C18.6754 13.096 17.9377 12.5992 17.5995 11.9557C17.5136 11.7922 17.4704 11.6462 17.553 11.4737C17.6815 11.3318 17.8892 11.2987 18.0841 11.2497Z" fill="#42CF3B"/>
</g>
<mask id="mask19_5_599" style="mask-type:alpha" maskUnits="userSpaceOnUse" x="17" y="10" width="10" height="9">
<rect width="8.53855" height="9.08724" transform="matrix(4.75802e-08 1 1 -4.82896e-08 17 10.081)" fill="#42CF3B"/>
</mask>
<g mask="url(#mask19_5_599)">
<path d="M18.0841 25.9895C18.364 25.9775 18.6597 25.9319 18.9316 25.875C20.7918 25.4857 22.2769 24.2722 23.2311 22.9363C24.5936 21.0288 25.0048 18.5127 24.342 16.3674C23.7265 14.375 22.3997 12.7044 20.2486 11.6502C19.6354 11.3321 18.6897 11.0752 17.9618 11.1085C17.769 11.1172 17.6467 11.1519 17.5145 11.2754C17.2314 11.847 18.6926 13.0517 19.067 13.5462C19.4015 13.9879 19.6845 14.4856 19.9102 14.9723C21.1905 17.7333 20.8251 20.9686 19.0919 23.5282C18.6754 24.1432 17.9377 24.64 17.5995 25.2835C17.5136 25.447 17.4704 25.593 17.553 25.7655C17.6815 25.9074 17.8892 25.9404 18.0841 25.9895Z" fill="#42CF3B"/>
</g>
<ellipse cx="11.2535" cy="18.6229" rx="11.7642" ry="8.95689" transform="rotate(180 11.2535 18.6229)" fill="#42CF3B"/>
</g>
</svg>
